<?xml version="1.0" standalone="no"?><!DOCTYPE svg PUBLIC "-//W3C//DTD SVG 1.1//EN" "http://www.w3.org/Graphics/SVG/1.1/DTD/svg11.dtd"><svg t="1703751169907" class="icon" viewBox="0 0 1024 1024" version="1.1" xmlns="http://www.w3.org/2000/svg" p-id="4258" xmlns:xlink="http://www.w3.org/1999/xlink"><path d="M832 256h-28.8l-32-160c-6.4-25.6-28.8-44.8-54.4-44.8H307.2c-25.6 0-48 19.2-54.4 44.8l-32 160H192c-19.2 0-32 12.8-32 32v608c0 19.2 12.8 32 32 32h640c19.2 0 32-12.8 32-32V288c0-19.2-12.8-32-32-32z m-544-128h448l19.2 128H268.8l19.2-128z m512 736H224V320h576v544z" fill="currentColor" p-id="4259"></path><path d="M384 448h256c19.2 0 32-12.8 32-32s-12.8-32-32-32H384c-19.2 0-32 12.8-32 32s12.8 32 32 32z" fill="currentColor" p-id="4260"></path></svg> 