<?xml version="1.0" standalone="no"?><!DOCTYPE svg PUBLIC "-//W3C//DTD SVG 1.1//EN" "http://www.w3.org/Graphics/SVG/1.1/DTD/svg11.dtd"><svg t="1703751169907" class="icon" viewBox="0 0 1024 1024" version="1.1" xmlns="http://www.w3.org/2000/svg" p-id="4258" xmlns:xlink="http://www.w3.org/1999/xlink"><path d="M832 64H192c-35.2 0-64 28.8-64 64v768c0 35.2 28.8 64 64 64h640c35.2 0 64-28.8 64-64V128c0-35.2-28.8-64-64-64zM320 256h384c17.6 0 32 14.4 32 32s-14.4 32-32 32H320c-17.6 0-32-14.4-32-32s14.4-32 32-32z m0 192h384c17.6 0 32 14.4 32 32s-14.4 32-32 32H320c-17.6 0-32-14.4-32-32s14.4-32 32-32z m0 192h384c17.6 0 32 14.4 32 32s-14.4 32-32 32H320c-17.6 0-32-14.4-32-32s14.4-32 32-32z" fill="currentColor" p-id="4259"></path></svg> 